<?xml version="1.0" encoding="utf-8" standalone="no"?>
<!DOCTYPE svg PUBLIC "-//W3C//DTD SVG 1.1//EN"
  "http://www.w3.org/Graphics/SVG/1.1/DTD/svg11.dtd">
<!-- Created with matplotlib (https://matplotlib.org/) -->
<svg height="345.6pt" version="1.1" viewBox="0 0 460.8 345.6" width="460.8pt" xmlns="http://www.w3.org/2000/svg" xmlns:xlink="http://www.w3.org/1999/xlink">
 <defs>
  <style type="text/css">
*{stroke-linecap:butt;stroke-linejoin:round;fill:#212121;}
  </style>
 </defs>
 <g id="figure_1">
  <g id="patch_1">
   <path d="M 0 345.6 
L 460.8 345.6 
L 460.8 0 
L 0 0 
z
" style="fill:#e9e9e9;"/>
  </g>
  <g id="axes_1">
   <g id="patch_2">
    <path d="M 57.6 307.584 
L 414.72 307.584 
L 414.72 41.472 
L 57.6 41.472 
z
" style="fill:#e9e9e9;"/>
   </g>
   <g id="patch_3">
    <path clip-path="url(#pe9676b73a7)" d="M 73.832727 307.584 
L 127.941818 307.584 
L 127.941818 256.896 
L 73.832727 256.896 
z
" style="fill:#ff007b;"/>
   </g>
   <g id="patch_4">
    <path clip-path="url(#pe9676b73a7)" d="M 141.469091 307.584 
L 195.578182 307.584 
L 195.578182 231.552 
L 141.469091 231.552 
z
" style="fill:#ff007b;"/>
   </g>
   <g id="patch_5">
    <path clip-path="url(#pe9676b73a7)" d="M 209.105455 307.584 
L 263.214545 307.584 
L 263.214545 155.52 
L 209.105455 155.52 
z
" style="fill:#ff007b;"/>
   </g>
   <g id="patch_6">
    <path clip-path="url(#pe9676b73a7)" d="M 276.741818 307.584 
L 330.850909 307.584 
L 330.850909 54.144 
L 276.741818 54.144 
z
" style="fill:#ff007b;"/>
   </g>
   <g id="patch_7">
    <path clip-path="url(#pe9676b73a7)" d="M 344.378182 307.584 
L 398.487273 307.584 
L 398.487273 282.24 
L 344.378182 282.24 
z
" style="fill:#ff007b;"/>
   </g>
   <g id="patch_8">
    <path clip-path="url(#pe9676b73a7)" d="M 73.832727 307.584 
L 114.414545 307.584 
L 114.414545 305.0496 
L 73.832727 305.0496 
z
" style="fill:#00e1ff;"/>
   </g>
   <g id="patch_9">
    <path clip-path="url(#pe9676b73a7)" d="M 141.469091 307.584 
L 182.050909 307.584 
L 182.050909 294.912 
L 141.469091 294.912 
z
" style="fill:#00e1ff;"/>
   </g>
   <g id="patch_10">
    <path clip-path="url(#pe9676b73a7)" d="M 209.105455 307.584 
L 249.687273 307.584 
L 249.687273 307.584 
L 209.105455 307.584 
z
" style="fill:#00e1ff;"/>
   </g>
   <g id="patch_11">
    <path clip-path="url(#pe9676b73a7)" d="M 276.741818 307.584 
L 317.323636 307.584 
L 317.323636 292.3776 
L 276.741818 292.3776 
z
" style="fill:#00e1ff;"/>
   </g>
   <g id="patch_12">
    <path clip-path="url(#pe9676b73a7)" d="M 344.378182 307.584 
L 384.96 307.584 
L 384.96 299.9808 
L 344.378182 299.9808 
z
" style="fill:#00e1ff;"/>
   </g>
   <g id="patch_13">
    <path clip-path="url(#pe9676b73a7)" d="M 73.832727 307.584 
L 100.887273 307.584 
L 100.887273 306.3168 
L 73.832727 306.3168 
z
" style="fill:#008000;"/>
   </g>
   <g id="patch_14">
    <path clip-path="url(#pe9676b73a7)" d="M 141.469091 307.584 
L 168.523636 307.584 
L 168.523636 305.0496 
L 141.469091 305.0496 
z
" style="fill:#008000;"/>
   </g>
   <g id="patch_15">
    <path clip-path="url(#pe9676b73a7)" d="M 209.105455 307.584 
L 236.16 307.584 
L 236.16 302.5152 
L 209.105455 302.5152 
z
" style="fill:#008000;"/>
   </g>
   <g id="patch_16">
    <path clip-path="url(#pe9676b73a7)" d="M 276.741818 307.584 
L 303.796364 307.584 
L 303.796364 307.584 
L 276.741818 307.584 
z
" style="fill:#008000;"/>
   </g>
   <g id="patch_17">
    <path clip-path="url(#pe9676b73a7)" d="M 344.378182 307.584 
L 371.432727 307.584 
L 371.432727 297.4464 
L 344.378182 297.4464 
z
" style="fill:#008000;"/>
   </g>
   <g id="matplotlib.axis_1">
    <g id="xtick_1">
     <g id="line2d_1">
      <defs>
       <path d="M 0 0 
L 0 3.5 
" id="mbdc6600cd0" style="stroke:#212121;stroke-width:0.8;"/>
      </defs>
      <g>
       <use style="stroke:#212121;stroke-width:0.8;" x="73.832727" xlink:href="#mbdc6600cd0" y="307.584"/>
      </g>
     </g>
     <g id="text_1">
      <!-- Jan -->
      <defs>
       <path d="M 9.8125 72.90625 
L 19.671875 72.90625 
L 19.671875 5.078125 
Q 19.671875 -8.109375 14.671875 -14.0625 
Q 9.671875 -20.015625 -1.421875 -20.015625 
L -5.171875 -20.015625 
L -5.171875 -11.71875 
L -2.09375 -11.71875 
Q 4.4375 -11.71875 7.125 -8.046875 
Q 9.8125 -4.390625 9.8125 5.078125 
z
" id="DejaVuSans-74"/>
       <path d="M 34.28125 27.484375 
Q 23.390625 27.484375 19.1875 25 
Q 14.984375 22.515625 14.984375 16.5 
Q 14.984375 11.71875 18.140625 8.90625 
Q 21.296875 6.109375 26.703125 6.109375 
Q 34.1875 6.109375 38.703125 11.40625 
Q 43.21875 16.703125 43.21875 25.484375 
L 43.21875 27.484375 
z
M 52.203125 31.203125 
L 52.203125 0 
L 43.21875 0 
L 43.21875 8.296875 
Q 40.140625 3.328125 35.546875 0.953125 
Q 30.953125 -1.421875 24.3125 -1.421875 
Q 15.921875 -1.421875 10.953125 3.296875 
Q 6 8.015625 6 15.921875 
Q 6 25.140625 12.171875 29.828125 
Q 18.359375 34.515625 30.609375 34.515625 
L 43.21875 34.515625 
L 43.21875 35.40625 
Q 43.21875 41.609375 39.140625 45 
Q 35.0625 48.390625 27.6875 48.390625 
Q 23 48.390625 18.546875 47.265625 
Q 14.109375 46.140625 10.015625 43.890625 
L 10.015625 52.203125 
Q 14.9375 54.109375 19.578125 55.046875 
Q 24.21875 56 28.609375 56 
Q 40.484375 56 46.34375 49.84375 
Q 52.203125 43.703125 52.203125 31.203125 
z
" id="DejaVuSans-97"/>
       <path d="M 54.890625 33.015625 
L 54.890625 0 
L 45.90625 0 
L 45.90625 32.71875 
Q 45.90625 40.484375 42.875 44.328125 
Q 39.84375 48.1875 33.796875 48.1875 
Q 26.515625 48.1875 22.3125 43.546875 
Q 18.109375 38.921875 18.109375 30.90625 
L 18.109375 0 
L 9.078125 0 
L 9.078125 54.6875 
L 18.109375 54.6875 
L 18.109375 46.1875 
Q 21.34375 51.125 25.703125 53.5625 
Q 30.078125 56 35.796875 56 
Q 45.21875 56 50.046875 50.171875 
Q 54.890625 44.34375 54.890625 33.015625 
z
" id="DejaVuSans-110"/>
      </defs>
      <g transform="translate(66.124915 322.182437)scale(0.1 -0.1)">
       <use xlink:href="#DejaVuSans-74"/>
       <use x="29.492188" xlink:href="#DejaVuSans-97"/>
       <use x="90.771484" xlink:href="#DejaVuSans-110"/>
      </g>
     </g>
    </g>
    <g id="xtick_2">
     <g id="line2d_2">
      <g>
       <use style="stroke:#212121;stroke-width:0.8;" x="141.469091" xlink:href="#mbdc6600cd0" y="307.584"/>
      </g>
     </g>
     <g id="text_2">
      <!-- Feb -->
      <defs>
       <path d="M 9.8125 72.90625 
L 51.703125 72.90625 
L 51.703125 64.59375 
L 19.671875 64.59375 
L 19.671875 43.109375 
L 48.578125 43.109375 
L 48.578125 34.8125 
L 19.671875 34.8125 
L 19.671875 0 
L 9.8125 0 
z
" id="DejaVuSans-70"/>
       <path d="M 56.203125 29.59375 
L 56.203125 25.203125 
L 14.890625 25.203125 
Q 15.484375 15.921875 20.484375 11.0625 
Q 25.484375 6.203125 34.421875 6.203125 
Q 39.59375 6.203125 44.453125 7.46875 
Q 49.3125 8.734375 54.109375 11.28125 
L 54.109375 2.78125 
Q 49.265625 0.734375 44.1875 -0.34375 
Q 39.109375 -1.421875 33.890625 -1.421875 
Q 20.796875 -1.421875 13.15625 6.1875 
Q 5.515625 13.8125 5.515625 26.8125 
Q 5.515625 40.234375 12.765625 48.109375 
Q 20.015625 56 32.328125 56 
Q 43.359375 56 49.78125 48.890625 
Q 56.203125 41.796875 56.203125 29.59375 
z
M 47.21875 32.234375 
Q 47.125 39.59375 43.09375 43.984375 
Q 39.0625 48.390625 32.421875 48.390625 
Q 24.90625 48.390625 20.390625 44.140625 
Q 15.875 39.890625 15.1875 32.171875 
z
" id="DejaVuSans-101"/>
       <path d="M 48.6875 27.296875 
Q 48.6875 37.203125 44.609375 42.84375 
Q 40.53125 48.484375 33.40625 48.484375 
Q 26.265625 48.484375 22.1875 42.84375 
Q 18.109375 37.203125 18.109375 27.296875 
Q 18.109375 17.390625 22.1875 11.75 
Q 26.265625 6.109375 33.40625 6.109375 
Q 40.53125 6.109375 44.609375 11.75 
Q 48.6875 17.390625 48.6875 27.296875 
z
M 18.109375 46.390625 
Q 20.953125 51.265625 25.265625 53.625 
Q 29.59375 56 35.59375 56 
Q 45.5625 56 51.78125 48.09375 
Q 58.015625 40.1875 58.015625 27.296875 
Q 58.015625 14.40625 51.78125 6.484375 
Q 45.5625 -1.421875 35.59375 -1.421875 
Q 29.59375 -1.421875 25.265625 0.953125 
Q 20.953125 3.328125 18.109375 8.203125 
L 18.109375 0 
L 9.078125 0 
L 9.078125 75.984375 
L 18.109375 75.984375 
z
" id="DejaVuSans-98"/>
      </defs>
      <g transform="translate(132.346435 322.182437)scale(0.1 -0.1)">
       <use xlink:href="#DejaVuSans-70"/>
       <use x="57.441406" xlink:href="#DejaVuSans-101"/>
       <use x="118.964844" xlink:href="#DejaVuSans-98"/>
      </g>
     </g>
    </g>
    <g id="xtick_3">
     <g id="line2d_3">
      <g>
       <use style="stroke:#212121;stroke-width:0.8;" x="209.105455" xlink:href="#mbdc6600cd0" y="307.584"/>
      </g>
     </g>
     <g id="text_3">
      <!-- Mar -->
      <defs>
       <path d="M 9.8125 72.90625 
L 24.515625 72.90625 
L 43.109375 23.296875 
L 61.8125 72.90625 
L 76.515625 72.90625 
L 76.515625 0 
L 66.890625 0 
L 66.890625 64.015625 
L 48.09375 14.015625 
L 38.1875 14.015625 
L 19.390625 64.015625 
L 19.390625 0 
L 9.8125 0 
z
" id="DejaVuSans-77"/>
       <path d="M 41.109375 46.296875 
Q 39.59375 47.171875 37.8125 47.578125 
Q 36.03125 48 33.890625 48 
Q 26.265625 48 22.1875 43.046875 
Q 18.109375 38.09375 18.109375 28.8125 
L 18.109375 0 
L 9.078125 0 
L 9.078125 54.6875 
L 18.109375 54.6875 
L 18.109375 46.1875 
Q 20.953125 51.171875 25.484375 53.578125 
Q 30.03125 56 36.53125 56 
Q 37.453125 56 38.578125 55.875 
Q 39.703125 55.765625 41.0625 55.515625 
z
" id="DejaVuSans-114"/>
      </defs>
      <g transform="translate(199.671861 322.182437)scale(0.1 -0.1)">
       <use xlink:href="#DejaVuSans-77"/>
       <use x="86.279297" xlink:href="#DejaVuSans-97"/>
       <use x="147.558594" xlink:href="#DejaVuSans-114"/>
      </g>
     </g>
    </g>
    <g id="xtick_4">
     <g id="line2d_4">
      <g>
       <use style="stroke:#212121;stroke-width:0.8;" x="276.741818" xlink:href="#mbdc6600cd0" y="307.584"/>
      </g>
     </g>
     <g id="text_4">
      <!-- Apr -->
      <defs>
       <path d="M 34.1875 63.1875 
L 20.796875 26.90625 
L 47.609375 26.90625 
z
M 28.609375 72.90625 
L 39.796875 72.90625 
L 67.578125 0 
L 57.328125 0 
L 50.6875 18.703125 
L 17.828125 18.703125 
L 11.1875 0 
L 0.78125 0 
z
" id="DejaVuSans-65"/>
       <path d="M 18.109375 8.203125 
L 18.109375 -20.796875 
L 9.078125 -20.796875 
L 9.078125 54.6875 
L 18.109375 54.6875 
L 18.109375 46.390625 
Q 20.953125 51.265625 25.265625 53.625 
Q 29.59375 56 35.59375 56 
Q 45.5625 56 51.78125 48.09375 
Q 58.015625 40.1875 58.015625 27.296875 
Q 58.015625 14.40625 51.78125 6.484375 
Q 45.5625 -1.421875 35.59375 -1.421875 
Q 29.59375 -1.421875 25.265625 0.953125 
Q 20.953125 3.328125 18.109375 8.203125 
z
M 48.6875 27.296875 
Q 48.6875 37.203125 44.609375 42.84375 
Q 40.53125 48.484375 33.40625 48.484375 
Q 26.265625 48.484375 22.1875 42.84375 
Q 18.109375 37.203125 18.109375 27.296875 
Q 18.109375 17.390625 22.1875 11.75 
Q 26.265625 6.109375 33.40625 6.109375 
Q 40.53125 6.109375 44.609375 11.75 
Q 48.6875 17.390625 48.6875 27.296875 
z
" id="DejaVuSans-112"/>
      </defs>
      <g transform="translate(268.091818 322.182437)scale(0.1 -0.1)">
       <use xlink:href="#DejaVuSans-65"/>
       <use x="68.408203" xlink:href="#DejaVuSans-112"/>
       <use x="131.884766" xlink:href="#DejaVuSans-114"/>
      </g>
     </g>
    </g>
    <g id="xtick_5">
     <g id="line2d_5">
      <g>
       <use style="stroke:#212121;stroke-width:0.8;" x="344.378182" xlink:href="#mbdc6600cd0" y="307.584"/>
      </g>
     </g>
     <g id="text_5">
      <!-- May -->
      <defs>
       <path d="M 32.171875 -5.078125 
Q 28.375 -14.84375 24.75 -17.8125 
Q 21.140625 -20.796875 15.09375 -20.796875 
L 7.90625 -20.796875 
L 7.90625 -13.28125 
L 13.1875 -13.28125 
Q 16.890625 -13.28125 18.9375 -11.515625 
Q 21 -9.765625 23.484375 -3.21875 
L 25.09375 0.875 
L 2.984375 54.6875 
L 12.5 54.6875 
L 29.59375 11.921875 
L 46.6875 54.6875 
L 56.203125 54.6875 
z
" id="DejaVuSans-121"/>
      </defs>
      <g transform="translate(334.040682 322.182437)scale(0.1 -0.1)">
       <use xlink:href="#DejaVuSans-77"/>
       <use x="86.279297" xlink:href="#DejaVuSans-97"/>
       <use x="147.558594" xlink:href="#DejaVuSans-121"/>
      </g>
     </g>
    </g>
    <g id="text_6">
     <!-- month -->
     <defs>
      <path d="M 16.40625 41.40625 
L 17.203125 32.09375 
L 16.796875 32.90625 
Q 19.09375 37.59375 23.34375 40.296875 
Q 27.59375 43 33.09375 43 
Q 36.59375 43 39.296875 41.890625 
Q 42 40.796875 43.75 38.75 
Q 45.5 36.703125 46 33.703125 
L 45.5 33.40625 
Q 47.90625 37.90625 52.15625 40.453125 
Q 56.40625 43 61.09375 43 
Q 67.203125 43 70.75 39.546875 
Q 74.296875 36.09375 74.40625 30.59375 
L 74.40625 0 
L 65.09375 0 
L 65.09375 27.296875 
Q 65 30.5 63.546875 32.640625 
Q 62.09375 34.796875 58.5 35 
Q 54.90625 35 52.046875 32.796875 
Q 49.203125 30.59375 47.59375 27.140625 
Q 46 23.703125 45.90625 19.703125 
L 45.90625 0 
L 36.59375 0 
L 36.59375 27.296875 
Q 36.5 30.5 34.953125 32.640625 
Q 33.40625 34.796875 29.796875 35 
Q 26.09375 35 23.296875 32.796875 
Q 20.5 30.59375 18.953125 27.09375 
Q 17.40625 23.59375 17.40625 19.59375 
L 17.40625 0 
L 8.09375 0 
L 8.09375 41.40625 
z
" id="JosefinSans-Regular-109"/>
      <path d="M 4.5 21.09375 
Q 4.5 27.296875 7.453125 32.296875 
Q 10.40625 37.296875 15.59375 40.1875 
Q 20.796875 43.09375 27.40625 43.09375 
Q 34.203125 43.09375 39.296875 40.1875 
Q 44.40625 37.296875 47.203125 32.296875 
Q 50 27.296875 50 21.09375 
Q 50 14.90625 47.203125 9.84375 
Q 44.40625 4.796875 39.25 1.890625 
Q 34.09375 -1 27.296875 -1 
Q 20.703125 -1 15.546875 1.75 
Q 10.40625 4.5 7.453125 9.453125 
Q 4.5 14.40625 4.5 21.09375 
z
M 13.796875 21 
Q 13.796875 17 15.59375 13.75 
Q 17.40625 10.5 20.453125 8.59375 
Q 23.5 6.703125 27.203125 6.703125 
Q 31.09375 6.703125 34.140625 8.59375 
Q 37.203125 10.5 38.890625 13.75 
Q 40.59375 17 40.59375 21 
Q 40.59375 25 38.890625 28.25 
Q 37.203125 31.5 34.140625 33.453125 
Q 31.09375 35.40625 27.203125 35.40625 
Q 23.40625 35.40625 20.34375 33.40625 
Q 17.296875 31.40625 15.546875 28.15625 
Q 13.796875 24.90625 13.796875 21 
z
" id="JosefinSans-Regular-111"/>
      <path d="M 16.40625 41.40625 
L 17.203125 31.296875 
L 16.796875 32.90625 
Q 18.796875 37.5 23.296875 40.25 
Q 27.796875 43 33.703125 43 
Q 39.59375 43 43.34375 39.546875 
Q 47.09375 36.09375 47.203125 30.59375 
L 47.203125 0 
L 37.796875 0 
L 37.796875 27.296875 
Q 37.703125 30.703125 35.84375 32.84375 
Q 34 35 30.09375 35 
Q 26.5 35 23.59375 33 
Q 20.703125 31 19.046875 27.5 
Q 17.40625 24 17.40625 19.40625 
L 17.40625 0 
L 8.09375 0 
L 8.09375 41.40625 
z
" id="JosefinSans-Regular-110"/>
      <path d="M 12.09375 59.59375 
L 21.40625 59.59375 
L 21.40625 41.203125 
L 32.796875 41.203125 
L 32.796875 33.90625 
L 21.40625 33.90625 
L 21.40625 0 
L 12.09375 0 
L 12.09375 33.90625 
L 4.5 33.90625 
L 4.5 41.203125 
L 12.09375 41.203125 
z
" id="JosefinSans-Regular-116"/>
      <path d="M 8.09375 0 
L 8.09375 77.40625 
L 17.203125 77.40625 
L 17.203125 31.796875 
L 17 33.5 
Q 19.09375 37.59375 23.4375 40.296875 
Q 27.796875 43 33.703125 43 
Q 39.59375 43 43.34375 39.546875 
Q 47.09375 36.09375 47.203125 30.59375 
L 47.203125 0 
L 37.796875 0 
L 37.796875 27.296875 
Q 37.703125 30.703125 35.84375 32.84375 
Q 34 35 30.09375 35 
Q 26.5 35 23.59375 32.953125 
Q 20.703125 30.90625 19.046875 27.40625 
Q 17.40625 23.90625 17.40625 19.40625 
L 17.40625 0 
z
" id="JosefinSans-Regular-104"/>
     </defs>
     <g transform="translate(214.8975 339.873062)scale(0.15 -0.15)">
      <use xlink:href="#JosefinSans-Regular-109"/>
      <use x="82.499985" xlink:href="#JosefinSans-Regular-111"/>
      <use x="136.999969" xlink:href="#JosefinSans-Regular-110"/>
      <use x="192.299957" xlink:href="#JosefinSans-Regular-116"/>
      <use x="228.199951" xlink:href="#JosefinSans-Regular-104"/>
     </g>
    </g>
   </g>
   <g id="matplotlib.axis_2">
    <g id="ytick_1">
     <g id="line2d_6">
      <defs>
       <path d="M 0 0 
L -3.5 0 
" id="medcadc5431" style="stroke:#212121;stroke-width:0.8;"/>
      </defs>
      <g>
       <use style="stroke:#212121;stroke-width:0.8;" x="57.6" xlink:href="#medcadc5431" y="307.584"/>
      </g>
     </g>
     <g id="text_7">
      <!-- 0 -->
      <defs>
       <path d="M 31.78125 66.40625 
Q 24.171875 66.40625 20.328125 58.90625 
Q 16.5 51.421875 16.5 36.375 
Q 16.5 21.390625 20.328125 13.890625 
Q 24.171875 6.390625 31.78125 6.390625 
Q 39.453125 6.390625 43.28125 13.890625 
Q 47.125 21.390625 47.125 36.375 
Q 47.125 51.421875 43.28125 58.90625 
Q 39.453125 66.40625 31.78125 66.40625 
z
M 31.78125 74.21875 
Q 44.046875 74.21875 50.515625 64.515625 
Q 56.984375 54.828125 56.984375 36.375 
Q 56.984375 17.96875 50.515625 8.265625 
Q 44.046875 -1.421875 31.78125 -1.421875 
Q 19.53125 -1.421875 13.0625 8.265625 
Q 6.59375 17.96875 6.59375 36.375 
Q 6.59375 54.828125 13.0625 64.515625 
Q 19.53125 74.21875 31.78125 74.21875 
z
" id="DejaVuSans-48"/>
      </defs>
      <g transform="translate(44.2375 311.383219)scale(0.1 -0.1)">
       <use xlink:href="#DejaVuSans-48"/>
      </g>
     </g>
    </g>
    <g id="ytick_2">
     <g id="line2d_7">
      <g>
       <use style="stroke:#212121;stroke-width:0.8;" x="57.6" xlink:href="#medcadc5431" y="256.896"/>
      </g>
     </g>
     <g id="text_8">
      <!-- 200 -->
      <defs>
       <path d="M 19.1875 8.296875 
L 53.609375 8.296875 
L 53.609375 0 
L 7.328125 0 
L 7.328125 8.296875 
Q 12.9375 14.109375 22.625 23.890625 
Q 32.328125 33.6875 34.8125 36.53125 
Q 39.546875 41.84375 41.421875 45.53125 
Q 43.3125 49.21875 43.3125 52.78125 
Q 43.3125 58.59375 39.234375 62.25 
Q 35.15625 65.921875 28.609375 65.921875 
Q 23.96875 65.921875 18.8125 64.3125 
Q 13.671875 62.703125 7.8125 59.421875 
L 7.8125 69.390625 
Q 13.765625 71.78125 18.9375 73 
Q 24.125 74.21875 28.421875 74.21875 
Q 39.75 74.21875 46.484375 68.546875 
Q 53.21875 62.890625 53.21875 53.421875 
Q 53.21875 48.921875 51.53125 44.890625 
Q 49.859375 40.875 45.40625 35.40625 
Q 44.1875 33.984375 37.640625 27.21875 
Q 31.109375 20.453125 19.1875 8.296875 
z
" id="DejaVuSans-50"/>
      </defs>
      <g transform="translate(31.5125 260.695219)scale(0.1 -0.1)">
       <use xlink:href="#DejaVuSans-50"/>
       <use x="63.623047" xlink:href="#DejaVuSans-48"/>
       <use x="127.246094" xlink:href="#DejaVuSans-48"/>
      </g>
     </g>
    </g>
    <g id="ytick_3">
     <g id="line2d_8">
      <g>
       <use style="stroke:#212121;stroke-width:0.8;" x="57.6" xlink:href="#medcadc5431" y="206.208"/>
      </g>
     </g>
     <g id="text_9">
      <!-- 400 -->
      <defs>
       <path d="M 37.796875 64.3125 
L 12.890625 25.390625 
L 37.796875 25.390625 
z
M 35.203125 72.90625 
L 47.609375 72.90625 
L 47.609375 25.390625 
L 58.015625 25.390625 
L 58.015625 17.1875 
L 47.609375 17.1875 
L 47.609375 0 
L 37.796875 0 
L 37.796875 17.1875 
L 4.890625 17.1875 
L 4.890625 26.703125 
z
" id="DejaVuSans-52"/>
      </defs>
      <g transform="translate(31.5125 210.007219)scale(0.1 -0.1)">
       <use xlink:href="#DejaVuSans-52"/>
       <use x="63.623047" xlink:href="#DejaVuSans-48"/>
       <use x="127.246094" xlink:href="#DejaVuSans-48"/>
      </g>
     </g>
    </g>
    <g id="ytick_4">
     <g id="line2d_9">
      <g>
       <use style="stroke:#212121;stroke-width:0.8;" x="57.6" xlink:href="#medcadc5431" y="155.52"/>
      </g>
     </g>
     <g id="text_10">
      <!-- 600 -->
      <defs>
       <path d="M 33.015625 40.375 
Q 26.375 40.375 22.484375 35.828125 
Q 18.609375 31.296875 18.609375 23.390625 
Q 18.609375 15.53125 22.484375 10.953125 
Q 26.375 6.390625 33.015625 6.390625 
Q 39.65625 6.390625 43.53125 10.953125 
Q 47.40625 15.53125 47.40625 23.390625 
Q 47.40625 31.296875 43.53125 35.828125 
Q 39.65625 40.375 33.015625 40.375 
z
M 52.59375 71.296875 
L 52.59375 62.3125 
Q 48.875 64.0625 45.09375 64.984375 
Q 41.3125 65.921875 37.59375 65.921875 
Q 27.828125 65.921875 22.671875 59.328125 
Q 17.53125 52.734375 16.796875 39.40625 
Q 19.671875 43.65625 24.015625 45.921875 
Q 28.375 48.1875 33.59375 48.1875 
Q 44.578125 48.1875 50.953125 41.515625 
Q 57.328125 34.859375 57.328125 23.390625 
Q 57.328125 12.15625 50.6875 5.359375 
Q 44.046875 -1.421875 33.015625 -1.421875 
Q 20.359375 -1.421875 13.671875 8.265625 
Q 6.984375 17.96875 6.984375 36.375 
Q 6.984375 53.65625 15.1875 63.9375 
Q 23.390625 74.21875 37.203125 74.21875 
Q 40.921875 74.21875 44.703125 73.484375 
Q 48.484375 72.75 52.59375 71.296875 
z
" id="DejaVuSans-54"/>
      </defs>
      <g transform="translate(31.5125 159.319219)scale(0.1 -0.1)">
       <use xlink:href="#DejaVuSans-54"/>
       <use x="63.623047" xlink:href="#DejaVuSans-48"/>
       <use x="127.246094" xlink:href="#DejaVuSans-48"/>
      </g>
     </g>
    </g>
    <g id="ytick_5">
     <g id="line2d_10">
      <g>
       <use style="stroke:#212121;stroke-width:0.8;" x="57.6" xlink:href="#medcadc5431" y="104.832"/>
      </g>
     </g>
     <g id="text_11">
      <!-- 800 -->
      <defs>
       <path d="M 31.78125 34.625 
Q 24.75 34.625 20.71875 30.859375 
Q 16.703125 27.09375 16.703125 20.515625 
Q 16.703125 13.921875 20.71875 10.15625 
Q 24.75 6.390625 31.78125 6.390625 
Q 38.8125 6.390625 42.859375 10.171875 
Q 46.921875 13.96875 46.921875 20.515625 
Q 46.921875 27.09375 42.890625 30.859375 
Q 38.875 34.625 31.78125 34.625 
z
M 21.921875 38.8125 
Q 15.578125 40.375 12.03125 44.71875 
Q 8.5 49.078125 8.5 55.328125 
Q 8.5 64.0625 14.71875 69.140625 
Q 20.953125 74.21875 31.78125 74.21875 
Q 42.671875 74.21875 48.875 69.140625 
Q 55.078125 64.0625 55.078125 55.328125 
Q 55.078125 49.078125 51.53125 44.71875 
Q 48 40.375 41.703125 38.8125 
Q 48.828125 37.15625 52.796875 32.3125 
Q 56.78125 27.484375 56.78125 20.515625 
Q 56.78125 9.90625 50.3125 4.234375 
Q 43.84375 -1.421875 31.78125 -1.421875 
Q 19.734375 -1.421875 13.25 4.234375 
Q 6.78125 9.90625 6.78125 20.515625 
Q 6.78125 27.484375 10.78125 32.3125 
Q 14.796875 37.15625 21.921875 38.8125 
z
M 18.3125 54.390625 
Q 18.3125 48.734375 21.84375 45.5625 
Q 25.390625 42.390625 31.78125 42.390625 
Q 38.140625 42.390625 41.71875 45.5625 
Q 45.3125 48.734375 45.3125 54.390625 
Q 45.3125 60.0625 41.71875 63.234375 
Q 38.140625 66.40625 31.78125 66.40625 
Q 25.390625 66.40625 21.84375 63.234375 
Q 18.3125 60.0625 18.3125 54.390625 
z
" id="DejaVuSans-56"/>
      </defs>
      <g transform="translate(31.5125 108.631219)scale(0.1 -0.1)">
       <use xlink:href="#DejaVuSans-56"/>
       <use x="63.623047" xlink:href="#DejaVuSans-48"/>
       <use x="127.246094" xlink:href="#DejaVuSans-48"/>
      </g>
     </g>
    </g>
    <g id="ytick_6">
     <g id="line2d_11">
      <g>
       <use style="stroke:#212121;stroke-width:0.8;" x="57.6" xlink:href="#medcadc5431" y="54.144"/>
      </g>
     </g>
     <g id="text_12">
      <!-- 1000 -->
      <defs>
       <path d="M 12.40625 8.296875 
L 28.515625 8.296875 
L 28.515625 63.921875 
L 10.984375 60.40625 
L 10.984375 69.390625 
L 28.421875 72.90625 
L 38.28125 72.90625 
L 38.28125 8.296875 
L 54.390625 8.296875 
L 54.390625 0 
L 12.40625 0 
z
" id="DejaVuSans-49"/>
      </defs>
      <g transform="translate(25.15 57.943219)scale(0.1 -0.1)">
       <use xlink:href="#DejaVuSans-49"/>
       <use x="63.623047" xlink:href="#DejaVuSans-48"/>
       <use x="127.246094" xlink:href="#DejaVuSans-48"/>
       <use x="190.869141" xlink:href="#DejaVuSans-48"/>
      </g>
     </g>
    </g>
    <g id="text_13">
     <!-- value -->
     <defs>
      <path d="M 24.90625 -1.203125 
L 1.90625 41.40625 
L 12.90625 41.40625 
L 28.5 8.5 
L 22.796875 8.703125 
L 37.09375 41.40625 
L 47.5 41.40625 
L 25.40625 -1.203125 
z
" id="JosefinSans-Regular-118"/>
      <path d="M 25.296875 -1 
Q 19.5 -1 14.75 1.5 
Q 10 4 7.25 8.84375 
Q 4.5 13.703125 4.5 20.703125 
Q 4.5 27.59375 7.390625 32.640625 
Q 10.296875 37.703125 15.140625 40.390625 
Q 20 43.09375 25.796875 43.09375 
Q 31.59375 43.09375 35.59375 40.4375 
Q 39.59375 37.796875 41.703125 34.203125 
L 41.09375 32.59375 
L 42 41.40625 
L 50.59375 41.40625 
L 50.59375 0 
L 41.296875 0 
L 41.296875 10.796875 
L 42.296875 8.40625 
Q 41.90625 7.40625 40.546875 5.84375 
Q 39.203125 4.296875 36.953125 2.6875 
Q 34.703125 1.09375 31.796875 0.046875 
Q 28.90625 -1 25.296875 -1 
z
M 27.796875 6.703125 
Q 31.296875 6.703125 34.09375 8 
Q 36.90625 9.296875 38.75 11.640625 
Q 40.59375 14 41.296875 17.296875 
L 41.296875 25.40625 
Q 40.5 28.40625 38.5 30.65625 
Q 36.5 32.90625 33.703125 34.15625 
Q 30.90625 35.40625 27.5 35.40625 
Q 23.796875 35.40625 20.6875 33.59375 
Q 17.59375 31.796875 15.75 28.59375 
Q 13.90625 25.40625 13.90625 21.09375 
Q 13.90625 17.09375 15.796875 13.796875 
Q 17.703125 10.5 20.890625 8.59375 
Q 24.09375 6.703125 27.796875 6.703125 
z
" id="JosefinSans-Regular-97"/>
      <path d="M 8.09375 77.40625 
L 17.40625 77.40625 
L 17.40625 0 
L 8.09375 0 
z
" id="JosefinSans-Regular-108"/>
      <path d="M 21.203125 -1.59375 
Q 15.59375 -1.59375 11.9375 1.84375 
Q 8.296875 5.296875 8.09375 10.796875 
L 8.09375 41.40625 
L 17.40625 41.40625 
L 17.40625 14.09375 
Q 17.59375 10.703125 19.34375 8.59375 
Q 21.09375 6.5 24.90625 6.40625 
Q 28.40625 6.40625 31.15625 8.453125 
Q 33.90625 10.5 35.59375 14.046875 
Q 37.296875 17.59375 37.296875 22.09375 
L 37.296875 41.40625 
L 46.59375 41.40625 
L 46.59375 0 
L 38.09375 0 
L 37.296875 10.203125 
L 37.796875 8.40625 
Q 36.59375 5.5 34.140625 3.25 
Q 31.703125 1 28.390625 -0.296875 
Q 25.09375 -1.59375 21.203125 -1.59375 
z
" id="JosefinSans-Regular-117"/>
      <path d="M 27.296875 -1 
Q 20.203125 -1 15.09375 1.84375 
Q 10 4.703125 7.25 9.640625 
Q 4.5 14.59375 4.5 21 
Q 4.5 27.09375 7.59375 32.09375 
Q 10.703125 37.09375 15.890625 40.09375 
Q 21.09375 43.09375 27.5 43.09375 
Q 35.703125 43.09375 41.09375 38.296875 
Q 46.5 33.5 48.40625 25.09375 
L 14.296875 13.09375 
L 12.09375 18.59375 
L 40.09375 28.796875 
L 38.09375 27.5 
Q 36.90625 30.796875 34.09375 33.25 
Q 31.296875 35.703125 26.796875 35.703125 
Q 23 35.703125 20 33.84375 
Q 17 32 15.296875 28.796875 
Q 13.59375 25.59375 13.59375 21.5 
Q 13.59375 17.203125 15.390625 13.953125 
Q 17.203125 10.703125 20.34375 8.84375 
Q 23.5 7 27.5 7 
Q 30.203125 7 32.75 8 
Q 35.296875 9 37.5 10.59375 
L 41.796875 3.703125 
Q 38.703125 1.59375 34.84375 0.296875 
Q 31 -1 27.296875 -1 
z
" id="JosefinSans-Regular-101"/>
     </defs>
     <g transform="translate(18.164062 192.528)rotate(-90)scale(0.15 -0.15)">
      <use xlink:href="#JosefinSans-Regular-118"/>
      <use x="49.399994" xlink:href="#JosefinSans-Regular-97"/>
      <use x="107.999985" xlink:href="#JosefinSans-Regular-108"/>
      <use x="133.399979" xlink:href="#JosefinSans-Regular-117"/>
      <use x="187.999969" xlink:href="#JosefinSans-Regular-101"/>
     </g>
    </g>
   </g>
   <g id="patch_18">
    <path d="M 57.6 307.584 
L 57.6 41.472 
" style="fill:none;stroke:#212121;stroke-linecap:square;stroke-linejoin:miter;stroke-width:0.8;"/>
   </g>
   <g id="patch_19">
    <path d="M 414.72 307.584 
L 414.72 41.472 
" style="fill:none;stroke:#212121;stroke-linecap:square;stroke-linejoin:miter;stroke-width:0.8;"/>
   </g>
   <g id="patch_20">
    <path d="M 57.6 307.584 
L 414.72 307.584 
" style="fill:none;stroke:#212121;stroke-linecap:square;stroke-linejoin:miter;stroke-width:0.8;"/>
   </g>
   <g id="patch_21">
    <path d="M 57.6 41.472 
L 414.72 41.472 
" style="fill:none;stroke:#212121;stroke-linecap:square;stroke-linejoin:miter;stroke-width:0.8;"/>
   </g>
   <g id="text_14">
    <!-- 200 -->
    <g transform="translate(107.650909 256.896)scale(0.1 -0.1)">
     <use xlink:href="#DejaVuSans-50"/>
     <use x="63.623047" xlink:href="#DejaVuSans-48"/>
     <use x="127.246094" xlink:href="#DejaVuSans-48"/>
    </g>
   </g>
   <g id="text_15">
    <!-- 300 -->
    <defs>
     <path d="M 40.578125 39.3125 
Q 47.65625 37.796875 51.625 33 
Q 55.609375 28.21875 55.609375 21.1875 
Q 55.609375 10.40625 48.1875 4.484375 
Q 40.765625 -1.421875 27.09375 -1.421875 
Q 22.515625 -1.421875 17.65625 -0.515625 
Q 12.796875 0.390625 7.625 2.203125 
L 7.625 11.71875 
Q 11.71875 9.328125 16.59375 8.109375 
Q 21.484375 6.890625 26.8125 6.890625 
Q 36.078125 6.890625 40.9375 10.546875 
Q 45.796875 14.203125 45.796875 21.1875 
Q 45.796875 27.640625 41.28125 31.265625 
Q 36.765625 34.90625 28.71875 34.90625 
L 20.21875 34.90625 
L 20.21875 43.015625 
L 29.109375 43.015625 
Q 36.375 43.015625 40.234375 45.921875 
Q 44.09375 48.828125 44.09375 54.296875 
Q 44.09375 59.90625 40.109375 62.90625 
Q 36.140625 65.921875 28.71875 65.921875 
Q 24.65625 65.921875 20.015625 65.03125 
Q 15.375 64.15625 9.8125 62.3125 
L 9.8125 71.09375 
Q 15.4375 72.65625 20.34375 73.4375 
Q 25.25 74.21875 29.59375 74.21875 
Q 40.828125 74.21875 47.359375 69.109375 
Q 53.90625 64.015625 53.90625 55.328125 
Q 53.90625 49.265625 50.4375 45.09375 
Q 46.96875 40.921875 40.578125 39.3125 
z
" id="DejaVuSans-51"/>
    </defs>
    <g transform="translate(175.287273 231.552)scale(0.1 -0.1)">
     <use xlink:href="#DejaVuSans-51"/>
     <use x="63.623047" xlink:href="#DejaVuSans-48"/>
     <use x="127.246094" xlink:href="#DejaVuSans-48"/>
    </g>
   </g>
   <g id="text_16">
    <!-- 600 -->
    <g transform="translate(242.923636 155.52)scale(0.1 -0.1)">
     <use xlink:href="#DejaVuSans-54"/>
     <use x="63.623047" xlink:href="#DejaVuSans-48"/>
     <use x="127.246094" xlink:href="#DejaVuSans-48"/>
    </g>
   </g>
   <g id="text_17">
    <!-- 1000 -->
    <g transform="translate(310.56 54.144)scale(0.1 -0.1)">
     <use xlink:href="#DejaVuSans-49"/>
     <use x="63.623047" xlink:href="#DejaVuSans-48"/>
     <use x="127.246094" xlink:href="#DejaVuSans-48"/>
     <use x="190.869141" xlink:href="#DejaVuSans-48"/>
    </g>
   </g>
   <g id="text_18">
    <!-- 100 -->
    <g transform="translate(378.196364 282.24)scale(0.1 -0.1)">
     <use xlink:href="#DejaVuSans-49"/>
     <use x="63.623047" xlink:href="#DejaVuSans-48"/>
     <use x="127.246094" xlink:href="#DejaVuSans-48"/>
    </g>
   </g>
   <g id="text_19">
    <!-- 10 -->
    <g transform="translate(94.123636 305.0496)scale(0.1 -0.1)">
     <use xlink:href="#DejaVuSans-49"/>
     <use x="63.623047" xlink:href="#DejaVuSans-48"/>
    </g>
   </g>
   <g id="text_20">
    <!-- 50 -->
    <defs>
     <path d="M 10.796875 72.90625 
L 49.515625 72.90625 
L 49.515625 64.59375 
L 19.828125 64.59375 
L 19.828125 46.734375 
Q 21.96875 47.46875 24.109375 47.828125 
Q 26.265625 48.1875 28.421875 48.1875 
Q 40.625 48.1875 47.75 41.5 
Q 54.890625 34.8125 54.890625 23.390625 
Q 54.890625 11.625 47.5625 5.09375 
Q 40.234375 -1.421875 26.90625 -1.421875 
Q 22.3125 -1.421875 17.546875 -0.640625 
Q 12.796875 0.140625 7.71875 1.703125 
L 7.71875 11.625 
Q 12.109375 9.234375 16.796875 8.0625 
Q 21.484375 6.890625 26.703125 6.890625 
Q 35.15625 6.890625 40.078125 11.328125 
Q 45.015625 15.765625 45.015625 23.390625 
Q 45.015625 31 40.078125 35.4375 
Q 35.15625 39.890625 26.703125 39.890625 
Q 22.75 39.890625 18.8125 39.015625 
Q 14.890625 38.140625 10.796875 36.28125 
z
" id="DejaVuSans-53"/>
    </defs>
    <g transform="translate(161.76 294.912)scale(0.1 -0.1)">
     <use xlink:href="#DejaVuSans-53"/>
     <use x="63.623047" xlink:href="#DejaVuSans-48"/>
    </g>
   </g>
   <g id="text_21">
    <!-- 0 -->
    <g transform="translate(229.396364 307.584)scale(0.1 -0.1)">
     <use xlink:href="#DejaVuSans-48"/>
    </g>
   </g>
   <g id="text_22">
    <!-- 60 -->
    <g transform="translate(297.032727 292.3776)scale(0.1 -0.1)">
     <use xlink:href="#DejaVuSans-54"/>
     <use x="63.623047" xlink:href="#DejaVuSans-48"/>
    </g>
   </g>
   <g id="text_23">
    <!-- 30 -->
    <g transform="translate(364.669091 299.9808)scale(0.1 -0.1)">
     <use xlink:href="#DejaVuSans-51"/>
     <use x="63.623047" xlink:href="#DejaVuSans-48"/>
    </g>
   </g>
   <g id="text_24">
    <!-- 5 -->
    <g transform="translate(80.596364 306.3168)scale(0.1 -0.1)">
     <use xlink:href="#DejaVuSans-53"/>
    </g>
   </g>
   <g id="text_25">
    <!-- 10 -->
    <g transform="translate(148.232727 305.0496)scale(0.1 -0.1)">
     <use xlink:href="#DejaVuSans-49"/>
     <use x="63.623047" xlink:href="#DejaVuSans-48"/>
    </g>
   </g>
   <g id="text_26">
    <!-- 20 -->
    <g transform="translate(215.869091 302.5152)scale(0.1 -0.1)">
     <use xlink:href="#DejaVuSans-50"/>
     <use x="63.623047" xlink:href="#DejaVuSans-48"/>
    </g>
   </g>
   <g id="text_27">
    <!-- 0 -->
    <g transform="translate(283.505455 307.584)scale(0.1 -0.1)">
     <use xlink:href="#DejaVuSans-48"/>
    </g>
   </g>
   <g id="text_28">
    <!-- 40 -->
    <g transform="translate(351.141818 297.4464)scale(0.1 -0.1)">
     <use xlink:href="#DejaVuSans-52"/>
     <use x="63.623047" xlink:href="#DejaVuSans-48"/>
    </g>
   </g>
   <g id="text_29">
    <!-- FINANCE -->
    <defs>
     <path d="M 10.40625 72.296875 
L 53.296875 72.296875 
L 53.296875 63 
L 20.09375 63 
L 20.09375 39.90625 
L 49.203125 39.90625 
L 49.203125 30.703125 
L 20.09375 30.703125 
L 20.09375 0 
L 10.40625 0 
z
" id="JosefinSans-Regular-70"/>
     <path d="M 10.40625 72.296875 
L 20.09375 72.296875 
L 20.09375 0 
L 10.40625 0 
z
" id="JosefinSans-Regular-73"/>
     <path d="M 73 -2.296875 
L 17.09375 54.40625 
L 19.90625 53.703125 
L 20.09375 0 
L 10.40625 0 
L 10.40625 74.5 
L 10.90625 74.5 
L 66.203125 17.59375 
L 63.90625 18.09375 
L 63.703125 72.296875 
L 73.296875 72.296875 
L 73.296875 -2.296875 
z
" id="JosefinSans-Regular-78"/>
     <path d="M 3.203125 0 
L 34.796875 75.296875 
L 35.40625 75.296875 
L 66.90625 0 
L 55.796875 0 
L 32.203125 60.09375 
L 39.09375 64.59375 
L 12.703125 0 
z
M 21.703125 27.40625 
L 48.59375 27.40625 
L 51.796875 19 
L 18.90625 19 
z
" id="JosefinSans-Regular-65"/>
     <path d="M 63.5 5.40625 
Q 61.703125 4.203125 58.59375 2.703125 
Q 55.5 1.203125 51.34375 0.203125 
Q 47.203125 -0.796875 42.296875 -0.796875 
Q 33.90625 -0.703125 27.15625 2.1875 
Q 20.40625 5.09375 15.703125 10.09375 
Q 11 15.09375 8.453125 21.640625 
Q 5.90625 28.203125 5.90625 35.59375 
Q 5.90625 43.703125 8.546875 50.546875 
Q 11.203125 57.40625 16 62.453125 
Q 20.796875 67.5 27.34375 70.296875 
Q 33.90625 73.09375 41.703125 73.09375 
Q 48.203125 73.09375 53.5 71.34375 
Q 58.796875 69.59375 62.59375 67.203125 
L 58.703125 58.203125 
Q 55.703125 60.203125 51.453125 62 
Q 47.203125 63.796875 42 63.796875 
Q 36.703125 63.796875 32 61.6875 
Q 27.296875 59.59375 23.6875 55.796875 
Q 20.09375 52 18.046875 46.953125 
Q 16 41.90625 16 36.09375 
Q 16 30.203125 17.84375 25.140625 
Q 19.703125 20.09375 23.140625 16.390625 
Q 26.59375 12.703125 31.5 10.59375 
Q 36.40625 8.5 42.5 8.5 
Q 48 8.5 52.296875 10.203125 
Q 56.59375 11.90625 59.40625 14 
z
" id="JosefinSans-Regular-67"/>
     <path d="M 10.40625 72.296875 
L 57.40625 72.296875 
L 57.40625 63 
L 20.09375 63 
L 20.09375 41 
L 53.40625 41 
L 53.40625 31.703125 
L 20.09375 31.703125 
L 20.09375 9.296875 
L 58.796875 9.296875 
L 58.796875 0 
L 10.40625 0 
z
" id="JosefinSans-Regular-69"/>
    </defs>
    <g transform="translate(201.546328 35.472)scale(0.15 -0.15)">
     <use xlink:href="#JosefinSans-Regular-70"/>
     <use x="58.899994" xlink:href="#JosefinSans-Regular-73"/>
     <use x="89.399979" xlink:href="#JosefinSans-Regular-78"/>
     <use x="173.09996" xlink:href="#JosefinSans-Regular-65"/>
     <use x="243.199951" xlink:href="#JosefinSans-Regular-78"/>
     <use x="326.899933" xlink:href="#JosefinSans-Regular-67"/>
     <use x="396.299927" xlink:href="#JosefinSans-Regular-69"/>
    </g>
   </g>
   <g id="legend_1">
    <g id="patch_22">
     <path d="M 64.6 93.506375 
L 157.154687 93.506375 
Q 159.154687 93.506375 159.154687 91.506375 
L 159.154687 48.472 
Q 159.154687 46.472 157.154687 46.472 
L 64.6 46.472 
Q 62.6 46.472 62.6 48.472 
L 62.6 91.506375 
Q 62.6 93.506375 64.6 93.506375 
z
" style="fill:#e9e9e9;opacity:0.8;stroke:#cccccc;stroke-linejoin:miter;"/>
    </g>
    <g id="patch_23">
     <path d="M 66.6 58.070438 
L 86.6 58.070438 
L 86.6 51.070438 
L 66.6 51.070438 
z
" style="fill:#ff007b;"/>
    </g>
    <g id="text_30">
     <!-- expenditure -->
     <defs>
      <path d="M 54.890625 54.6875 
L 35.109375 28.078125 
L 55.90625 0 
L 45.3125 0 
L 29.390625 21.484375 
L 13.484375 0 
L 2.875 0 
L 24.125 28.609375 
L 4.6875 54.6875 
L 15.28125 54.6875 
L 29.78125 35.203125 
L 44.28125 54.6875 
z
" id="DejaVuSans-120"/>
      <path d="M 45.40625 46.390625 
L 45.40625 75.984375 
L 54.390625 75.984375 
L 54.390625 0 
L 45.40625 0 
L 45.40625 8.203125 
Q 42.578125 3.328125 38.25 0.953125 
Q 33.9375 -1.421875 27.875 -1.421875 
Q 17.96875 -1.421875 11.734375 6.484375 
Q 5.515625 14.40625 5.515625 27.296875 
Q 5.515625 40.1875 11.734375 48.09375 
Q 17.96875 56 27.875 56 
Q 33.9375 56 38.25 53.625 
Q 42.578125 51.265625 45.40625 46.390625 
z
M 14.796875 27.296875 
Q 14.796875 17.390625 18.875 11.75 
Q 22.953125 6.109375 30.078125 6.109375 
Q 37.203125 6.109375 41.296875 11.75 
Q 45.40625 17.390625 45.40625 27.296875 
Q 45.40625 37.203125 41.296875 42.84375 
Q 37.203125 48.484375 30.078125 48.484375 
Q 22.953125 48.484375 18.875 42.84375 
Q 14.796875 37.203125 14.796875 27.296875 
z
" id="DejaVuSans-100"/>
      <path d="M 9.421875 54.6875 
L 18.40625 54.6875 
L 18.40625 0 
L 9.421875 0 
z
M 9.421875 75.984375 
L 18.40625 75.984375 
L 18.40625 64.59375 
L 9.421875 64.59375 
z
" id="DejaVuSans-105"/>
      <path d="M 18.3125 70.21875 
L 18.3125 54.6875 
L 36.8125 54.6875 
L 36.8125 47.703125 
L 18.3125 47.703125 
L 18.3125 18.015625 
Q 18.3125 11.328125 20.140625 9.421875 
Q 21.96875 7.515625 27.59375 7.515625 
L 36.8125 7.515625 
L 36.8125 0 
L 27.59375 0 
Q 17.1875 0 13.234375 3.875 
Q 9.28125 7.765625 9.28125 18.015625 
L 9.28125 47.703125 
L 2.6875 47.703125 
L 2.6875 54.6875 
L 9.28125 54.6875 
L 9.28125 70.21875 
z
" id="DejaVuSans-116"/>
      <path d="M 8.5 21.578125 
L 8.5 54.6875 
L 17.484375 54.6875 
L 17.484375 21.921875 
Q 17.484375 14.15625 20.5 10.265625 
Q 23.53125 6.390625 29.59375 6.390625 
Q 36.859375 6.390625 41.078125 11.03125 
Q 45.3125 15.671875 45.3125 23.6875 
L 45.3125 54.6875 
L 54.296875 54.6875 
L 54.296875 0 
L 45.3125 0 
L 45.3125 8.40625 
Q 42.046875 3.421875 37.71875 1 
Q 33.40625 -1.421875 27.6875 -1.421875 
Q 18.265625 -1.421875 13.375 4.4375 
Q 8.5 10.296875 8.5 21.578125 
z
M 31.109375 56 
z
" id="DejaVuSans-117"/>
     </defs>
     <g transform="translate(94.6 58.070438)scale(0.1 -0.1)">
      <use xlink:href="#DejaVuSans-101"/>
      <use x="61.507812" xlink:href="#DejaVuSans-120"/>
      <use x="120.6875" xlink:href="#DejaVuSans-112"/>
      <use x="184.164062" xlink:href="#DejaVuSans-101"/>
      <use x="245.6875" xlink:href="#DejaVuSans-110"/>
      <use x="309.066406" xlink:href="#DejaVuSans-100"/>
      <use x="372.542969" xlink:href="#DejaVuSans-105"/>
      <use x="400.326172" xlink:href="#DejaVuSans-116"/>
      <use x="439.535156" xlink:href="#DejaVuSans-117"/>
      <use x="502.914062" xlink:href="#DejaVuSans-114"/>
      <use x="543.996094" xlink:href="#DejaVuSans-101"/>
     </g>
    </g>
    <g id="patch_24">
     <path d="M 66.6 72.748563 
L 86.6 72.748563 
L 86.6 65.748563 
L 66.6 65.748563 
z
" style="fill:#00e1ff;"/>
    </g>
    <g id="text_31">
     <!-- profit -->
     <defs>
      <path d="M 30.609375 48.390625 
Q 23.390625 48.390625 19.1875 42.75 
Q 14.984375 37.109375 14.984375 27.296875 
Q 14.984375 17.484375 19.15625 11.84375 
Q 23.34375 6.203125 30.609375 6.203125 
Q 37.796875 6.203125 41.984375 11.859375 
Q 46.1875 17.53125 46.1875 27.296875 
Q 46.1875 37.015625 41.984375 42.703125 
Q 37.796875 48.390625 30.609375 48.390625 
z
M 30.609375 56 
Q 42.328125 56 49.015625 48.375 
Q 55.71875 40.765625 55.71875 27.296875 
Q 55.71875 13.875 49.015625 6.21875 
Q 42.328125 -1.421875 30.609375 -1.421875 
Q 18.84375 -1.421875 12.171875 6.21875 
Q 5.515625 13.875 5.515625 27.296875 
Q 5.515625 40.765625 12.171875 48.375 
Q 18.84375 56 30.609375 56 
z
" id="DejaVuSans-111"/>
      <path d="M 37.109375 75.984375 
L 37.109375 68.5 
L 28.515625 68.5 
Q 23.6875 68.5 21.796875 66.546875 
Q 19.921875 64.59375 19.921875 59.515625 
L 19.921875 54.6875 
L 34.71875 54.6875 
L 34.71875 47.703125 
L 19.921875 47.703125 
L 19.921875 0 
L 10.890625 0 
L 10.890625 47.703125 
L 2.296875 47.703125 
L 2.296875 54.6875 
L 10.890625 54.6875 
L 10.890625 58.5 
Q 10.890625 67.625 15.140625 71.796875 
Q 19.390625 75.984375 28.609375 75.984375 
z
" id="DejaVuSans-102"/>
     </defs>
     <g transform="translate(94.6 72.748563)scale(0.1 -0.1)">
      <use xlink:href="#DejaVuSans-112"/>
      <use x="63.476562" xlink:href="#DejaVuSans-114"/>
      <use x="104.558594" xlink:href="#DejaVuSans-111"/>
      <use x="165.740234" xlink:href="#DejaVuSans-102"/>
      <use x="200.945312" xlink:href="#DejaVuSans-105"/>
      <use x="228.728516" xlink:href="#DejaVuSans-116"/>
     </g>
    </g>
    <g id="patch_25">
     <path d="M 66.6 87.426688 
L 86.6 87.426688 
L 86.6 80.426688 
L 66.6 80.426688 
z
" style="fill:#008000;"/>
    </g>
    <g id="text_32">
     <!-- loss -->
     <defs>
      <path d="M 9.421875 75.984375 
L 18.40625 75.984375 
L 18.40625 0 
L 9.421875 0 
z
" id="DejaVuSans-108"/>
      <path d="M 44.28125 53.078125 
L 44.28125 44.578125 
Q 40.484375 46.53125 36.375 47.5 
Q 32.28125 48.484375 27.875 48.484375 
Q 21.1875 48.484375 17.84375 46.4375 
Q 14.5 44.390625 14.5 40.28125 
Q 14.5 37.15625 16.890625 35.375 
Q 19.28125 33.59375 26.515625 31.984375 
L 29.59375 31.296875 
Q 39.15625 29.25 43.1875 25.515625 
Q 47.21875 21.78125 47.21875 15.09375 
Q 47.21875 7.46875 41.1875 3.015625 
Q 35.15625 -1.421875 24.609375 -1.421875 
Q 20.21875 -1.421875 15.453125 -0.5625 
Q 10.6875 0.296875 5.421875 2 
L 5.421875 11.28125 
Q 10.40625 8.6875 15.234375 7.390625 
Q 20.0625 6.109375 24.8125 6.109375 
Q 31.15625 6.109375 34.5625 8.28125 
Q 37.984375 10.453125 37.984375 14.40625 
Q 37.984375 18.0625 35.515625 20.015625 
Q 33.0625 21.96875 24.703125 23.78125 
L 21.578125 24.515625 
Q 13.234375 26.265625 9.515625 29.90625 
Q 5.8125 33.546875 5.8125 39.890625 
Q 5.8125 47.609375 11.28125 51.796875 
Q 16.75 56 26.8125 56 
Q 31.78125 56 36.171875 55.265625 
Q 40.578125 54.546875 44.28125 53.078125 
z
" id="DejaVuSans-115"/>
     </defs>
     <g transform="translate(94.6 87.426688)scale(0.1 -0.1)">
      <use xlink:href="#DejaVuSans-108"/>
      <use x="27.783203" xlink:href="#DejaVuSans-111"/>
      <use x="88.964844" xlink:href="#DejaVuSans-115"/>
      <use x="141.064453" xlink:href="#DejaVuSans-115"/>
     </g>
    </g>
   </g>
  </g>
 </g>
 <defs>
  <clipPath id="pe9676b73a7">
   <rect height="266.112" width="357.12" x="57.6" y="41.472"/>
  </clipPath>
 </defs>
</svg>
