<?xml version="1.0" encoding="utf-8"?>
<svg xmlns="http://www.w3.org/2000/svg" xmlns:xlink="http://www.w3.org/1999/xlink" version= "1.1" width="60px" height="60px" viewBox="510 1098 60 60">
<g id="layer1">
</g>
<g id="layer2">
<g style="fill:rgb(255,111,111); fill-opacity:1.0; stroke-linejoin: miter">
<path d="M515.5556,1065.3055L515.5556,1065.3055L515.5556,1065.3055C515.5556,1068.3739,513.0683,1070.8612,510.00006,1070.8612C506.93182,1070.8612,504.44452,1068.3739,504.44452,1065.3055L504.44452,1065.3055L504.44452,1065.3055C504.44452,1062.2373,506.93182,1059.75,510.00006,1059.75C513.0683,1059.75,515.5556,1062.2373,515.5556,1065.3055 Z"/>
</g>
<g style="fill:rgb(255,111,111); fill-opacity:1.0; stroke-linejoin: miter">
<path d="M515.5556,1065.3055L515.5556,1065.3055L515.5556,1065.3055C515.5556,1068.3739,513.0683,1070.8612,510.00006,1070.8612C506.93182,1070.8612,504.44452,1068.3739,504.44452,1065.3055L504.44452,1065.3055L504.44452,1065.3055C504.44452,1062.2373,506.93182,1059.75,510.00006,1059.75C513.0683,1059.75,515.5556,1062.2373,515.5556,1065.3055 Z"/>
</g>
<g style="fill:rgb(255,111,111); fill-opacity:1.0; stroke-linejoin: miter">
<path d="M515.5556,1065.3055L515.5556,1065.3055L515.5556,1065.3055C515.5556,1068.3739,513.0683,1070.8612,510.00006,1070.8612C506.93182,1070.8612,504.44452,1068.3739,504.44452,1065.3055L504.44452,1065.3055L504.44452,1065.3055C504.44452,1062.2373,506.93182,1059.75,510.00006,1059.75C513.0683,1059.75,515.5556,1062.2373,515.5556,1065.3055 Z"/>
</g>
<g style="fill:rgb(165,255,111); fill-opacity:1.0; stroke-linejoin: miter">
<path d="M515.5556,1065.3055L515.5556,1065.3055L515.5556,1065.3055C515.5556,1068.3739,513.0683,1070.8612,510.00006,1070.8612C506.93182,1070.8612,504.44452,1068.3739,504.44452,1065.3055L504.44452,1065.3055L504.44452,1065.3055C504.44452,1062.2373,506.93182,1059.75,510.00006,1059.75C513.0683,1059.75,515.5556,1062.2373,515.5556,1065.3055 Z"/>
</g>
<g>
<g style="fill:rgb(165,255,111); fill-opacity:1.0; stroke-linejoin: miter">
<path d="M538.3448,1101.2228L538.3448,1101.2228L561.41974,1101.2229C564.488,1101.2229,566.9753,1103.7102,566.9753,1106.7784C566.9753,1109.8467,564.488,1112.334,561.4197,1112.334L561.4197,1112.334L538.3447,1112.334C535.2765,1112.334,532.7892,1109.8466,532.7892,1106.7783C532.78925,1103.7101,535.27655,1101.2228,538.3448,1101.2228 Z"/>
</g>
<g style="fill:rgb(165,255,111); fill-opacity:1.0; stroke-linejoin: miter">
<path d="M538.1397,1113.8229L538.1397,1113.8229L561.21466,1113.823C564.2829,1113.823,566.7702,1116.3103,566.7702,1119.3785C566.7702,1122.4468,564.2829,1124.9341,561.2146,1124.9341L561.2146,1124.9341L538.13965,1124.9341C535.0714,1124.9341,532.5841,1122.4467,532.5841,1119.3784C532.58417,1116.3102,535.0715,1113.8229,538.1397,1113.8229 Z"/>
</g>
<g style="fill:rgb(165,255,111); fill-opacity:1.0; stroke-linejoin: miter">
<path d="M537.8907,1126.423L537.8907,1126.423L560.96564,1126.4231C564.0339,1126.4231,566.5212,1128.9104,566.5212,1131.9786C566.5212,1135.0469,564.0339,1137.5342,560.9656,1137.5342L560.9656,1137.5342L537.8906,1137.5342C534.8224,1137.5342,532.3351,1135.0468,532.3351,1131.9785C532.33514,1128.9103,534.82245,1126.423,537.8907,1126.423 Z"/>
</g>
</g>
<g style="fill:rgb(165,255,111); fill-opacity:1.0; stroke-linejoin: miter">
<path d="M515.5556,1065.3055L515.5556,1065.3055L515.5556,1065.3055C515.5556,1068.3739,513.0683,1070.8612,510.00006,1070.8612C506.93182,1070.8612,504.44452,1068.3739,504.44452,1065.3055L504.44452,1065.3055L504.44452,1065.3055C504.44452,1062.2373,506.93182,1059.75,510.00006,1059.75C513.0683,1059.75,515.5556,1062.2373,515.5556,1065.3055 Z"/>
</g>
<g style="fill:rgb(165,255,111); fill-opacity:1.0; stroke-linejoin: miter">
<path d="M515.5556,1065.3055L515.5556,1065.3055L515.5556,1065.3055C515.5556,1068.3739,513.0683,1070.8612,510.00006,1070.8612C506.93182,1070.8612,504.44452,1068.3739,504.44452,1065.3055L504.44452,1065.3055L504.44452,1065.3055C504.44452,1062.2373,506.93182,1059.75,510.00006,1059.75C513.0683,1059.75,515.5556,1062.2373,515.5556,1065.3055 Z"/>
</g>
<g style="fill:rgb(165,255,111); fill-opacity:1.0; stroke-linejoin: miter">
<path d="M533.04266,1114.1454C529.4948,1114.1456,526.6191,1117.0211,526.619,1120.5692L526.619,1129.9347L518.08575,1129.9347C514.5385,1129.9347,511.66248,1132.8108,511.6624,1136.3582C511.66257,1139.9056,514.538,1142.7817,518.0855,1142.7817L518.08594,1142.7817L526.619,1142.7819L526.619,1150.3064C526.61896,1153.8539,529.49506,1156.73,533.04236,1156.73L533.04266,1156.73C536.59015,1156.7299,539.4661,1153.854,539.46625,1150.3065L539.46625,1142.7819L547.82336,1142.782L547.8234,1142.782C551.37067,1142.7819,554.24695,1139.9058,554.247,1136.3582C554.247,1132.8112,551.37115,1129.9347,547.8237,1129.9347L539.46625,1129.9347L539.46625,1120.569C539.4663,1117.0216,536.5903,1114.1455,533.0428,1114.1454 Z"/>
</g>
<g>
<g style="fill:rgb(255,111,111); fill-opacity:1.0; stroke-linejoin: miter">
<path d="M518.086,1130.8027L518.086,1130.8027L547.8235,1130.8027C550.89166,1130.8026,553.37897,1133.2902,553.37897,1136.3582C553.3789,1139.4264,550.8915,1141.9138,547.82336,1141.914L547.82336,1141.914L518.08594,1141.9137C515.01776,1141.914,512.5306,1139.4264,512.53046,1136.3582C512.5305,1133.2899,515.0179,1130.8026,518.086,1130.8027 Z"/>
</g>
<g style="fill:rgb(255,111,111); fill-opacity:1.0; stroke-linejoin: miter">
<path d="M538.5982,1120.569L538.5982,1120.569L538.5982,1150.3065C538.5981,1153.3746,536.1108,1155.8618,533.0426,1155.8619C529.9745,1155.862,527.487,1153.3745,527.48706,1150.3064L527.48706,1150.3064L527.48706,1120.5692C527.4871,1117.5007,529.97437,1115.0137,533.0427,1115.0134C536.11096,1115.0135,538.59827,1117.501,538.5982,1120.569 Z"/>
</g>
</g>
<g style="fill:rgb(165,255,111); fill-opacity:1.0; stroke-linejoin: miter">
<path d="M515.5556,1065.3055L515.5556,1065.3055L515.5556,1065.3055C515.5556,1068.3739,513.0683,1070.8612,510.00006,1070.8612C506.93182,1070.8612,504.44452,1068.3739,504.44452,1065.3055L504.44452,1065.3055L504.44452,1065.3055C504.44452,1062.2373,506.93182,1059.75,510.00006,1059.75C513.0683,1059.75,515.5556,1062.2373,515.5556,1065.3055 Z"/>
</g>
</g>
</svg>