<?xml version="1.0" encoding="utf-8"?>
<svg xmlns="http://www.w3.org/2000/svg" xmlns:xlink="http://www.w3.org/1999/xlink" version= "1.1" width="32px" height="32px" viewBox="1112 524 32 32">
<g id="layer1">
<g style="fill:rgb(0,0,0); fill-opacity:1.0; stroke-linejoin: miter">
<path d="M1087.6141,519.8586L1087.6141,519.8586L1087.6141,519.85864C1087.6141,521.8993,1085.9598,523.5536,1083.9192,523.5536C1081.8785,523.5536,1080.2242,521.8993,1080.2242,519.85864L1080.2242,519.85864L1080.2242,519.8586C1080.2242,517.81793,1081.8785,516.16364,1083.9192,516.16364C1085.9598,516.16364,1087.6141,517.81793,1087.6141,519.8586 Z"/>
</g>
<g style="fill:rgb(0,0,0); fill-opacity:1.0; stroke-linejoin: miter">
<path d="M1156.771,523.4146L1156.771,523.4146L1156.771,523.4146C1156.771,525.08795,1155.4144,526.44446,1153.7411,526.44446C1152.0677,526.44446,1150.7112,525.08795,1150.7112,523.4146L1150.7112,523.4146L1150.7112,523.4146C1150.7112,521.7413,1152.0677,520.38477,1153.7411,520.38477C1155.4144,520.38477,1156.771,521.7413,1156.771,523.4146 Z"/>
</g>
<g style="fill:rgb(0,0,0); fill-opacity:1.0; stroke-linejoin: miter">
<path d="M1086.9491,519.8586L1086.9491,519.8586L1086.9491,519.85864C1086.9491,521.532,1085.5925,522.8885,1083.9192,522.8885C1082.2458,522.8885,1080.8893,521.532,1080.8893,519.85864L1080.8893,519.85864L1080.8893,519.8586C1080.8893,518.18524,1082.2458,516.82874,1083.9192,516.82874C1085.5925,516.82874,1086.9491,518.18524,1086.9491,519.8586 Z"/>
</g>
<g style="fill:rgb(0,0,0); fill-opacity:1.0; stroke-linejoin: miter">
<path d="M1086.9491,519.8586L1086.9491,519.8586L1086.9491,519.85864C1086.9491,521.532,1085.5925,522.8885,1083.9192,522.8885C1082.2458,522.8885,1080.8893,521.532,1080.8893,519.85864L1080.8893,519.85864L1080.8893,519.8586C1080.8893,518.18524,1082.2458,516.82874,1083.9192,516.82874C1085.5925,516.82874,1086.9491,518.18524,1086.9491,519.8586 Z"/>
</g>
<g style="fill:rgb(0,0,0); fill-opacity:1.0; stroke-linejoin: miter">
<path d="M1086.9491,519.8586L1086.9491,519.8586L1086.9491,519.85864C1086.9491,521.532,1085.5925,522.8885,1083.9192,522.8885C1082.2458,522.8885,1080.8893,521.532,1080.8893,519.85864L1080.8893,519.85864L1080.8893,519.8586C1080.8893,518.18524,1082.2458,516.82874,1083.9192,516.82874C1085.5925,516.82874,1086.9491,518.18524,1086.9491,519.8586 Z"/>
</g>
<g style="fill:rgb(0,0,0); fill-opacity:1.0; stroke-linejoin: miter">
<path d="M1083.1459,521.7357L1083.1459,521.7357L1083.1459,521.7358C1083.1459,523.4091,1081.7893,524.7656,1080.116,524.7656C1078.4426,524.7656,1077.086,523.4091,1077.086,521.7358L1077.086,521.7358L1077.086,521.7357C1077.086,520.0624,1078.4426,518.7059,1080.116,518.7059C1081.7893,518.7059,1083.1459,520.0624,1083.1459,521.7357 Z"/>
</g>
<g style="fill:rgb(0,0,0); fill-opacity:1.0; stroke-linejoin: miter">
<path d="M1083.1459,521.7357L1083.1459,521.7357L1083.1459,521.7358C1083.1459,523.4091,1081.7893,524.7656,1080.116,524.7656C1078.4426,524.7656,1077.086,523.4091,1077.086,521.7358L1077.086,521.7358L1077.086,521.7357C1077.086,520.0624,1078.4426,518.7059,1080.116,518.7059C1081.7893,518.7059,1083.1459,520.0624,1083.1459,521.7357 Z"/>
</g>
<g style="fill:rgb(0,0,0); fill-opacity:1.0; stroke-linejoin: miter">
<path d="M1083.1459,521.7357L1083.1459,521.7357L1083.1459,521.7358C1083.1459,523.4091,1081.7893,524.7656,1080.116,524.7656C1078.4426,524.7656,1077.086,523.4091,1077.086,521.7358L1077.086,521.7358L1077.086,521.7357C1077.086,520.0624,1078.4426,518.7059,1080.116,518.7059C1081.7893,518.7059,1083.1459,520.0624,1083.1459,521.7357 Z"/>
</g>
<g style="fill:rgb(0,0,0); fill-opacity:1.0; stroke-linejoin: miter">
<path d="M1083.1459,521.7357L1083.1459,521.7357L1083.1459,521.7358C1083.1459,523.4091,1081.7893,524.7656,1080.116,524.7656C1078.4426,524.7656,1077.086,523.4091,1077.086,521.7358L1077.086,521.7358L1077.086,521.7357C1077.086,520.0624,1078.4426,518.7059,1080.116,518.7059C1081.7893,518.7059,1083.1459,520.0624,1083.1459,521.7357 Z"/>
</g>
<g style="fill:rgb(0,0,0); fill-opacity:1.0; stroke-linejoin: miter">
<path d="M1083.1459,521.7357L1083.1459,521.7357L1083.1459,521.7358C1083.1459,523.4091,1081.7893,524.7656,1080.116,524.7656C1078.4426,524.7656,1077.086,523.4091,1077.086,521.7358L1077.086,521.7358L1077.086,521.7357C1077.086,520.0624,1078.4426,518.7059,1080.116,518.7059C1081.7893,518.7059,1083.1459,520.0624,1083.1459,521.7357 Z"/>
</g>
<g style="fill:rgb(101,250,113); fill-opacity:1.0; stroke-linejoin: miter">
<path d="M1148.4922,550.9586L1148.4922,550.9586C1148.4922,551.2101,1148.4827,551.4609,1148.4631,551.7139L1148.4633,551.7134C1148.0942,556.50134,1144.2817,560.31384,1139.4938,560.6829L1139.4941,560.6829C1139.2441,560.7022,1138.9904,560.7119,1138.7389,560.7119L1138.7389,560.7119C1138.4874,560.7119,1138.2336,560.7022,1137.9836,560.6829L1137.984,560.6829C1133.196,560.31384,1129.3835,556.50116,1129.0145,551.7134L1129.0146,551.7139C1128.9951,551.4609,1128.9856,551.2132,1128.9856,550.9586L1128.9856,550.9586C1128.9856,550.7084,1128.9951,550.4551,1129.0145,550.2033L1129.0146,550.201C1129.3851,545.4148,1133.1967,541.6032,1137.9841,541.23425L1137.9838,541.23425C1138.2338,541.21497,1138.4873,541.20526,1138.7389,541.20526L1138.7389,541.20526C1138.9905,541.20526,1139.244,541.21497,1139.494,541.23425L1139.4937,541.23425C1144.2808,541.6032,1148.0927,545.4146,1148.4631,550.201L1148.4633,550.2033C1148.4829,550.45935,1148.4922,550.70087,1148.4922,550.9586L1148.4922,550.9586 M1138.7043,550.9586L1138.7043,550.9586C1138.7043,550.9532,1138.7043,550.9562,1138.7042,550.95404L1138.7043,550.95636C1138.7062,550.9803,1138.7168,550.9913,1138.7415,550.99316L1138.7411,550.99316C1138.7422,550.9932,1138.7407,550.9931,1138.7389,550.9931L1138.7389,550.9931C1138.737,550.9931,1138.7356,550.9932,1138.7367,550.99316L1138.7363,550.99316C1138.761,550.9913,1138.7716,550.98,1138.7734,550.95636L1138.7736,550.95404C1138.7737,550.9519,1138.7734,550.95416,1138.7734,550.9586L1138.7734,550.9586C1138.7734,550.962,1138.7734,550.96063,1138.7734,550.96063L1138.7736,550.9612C1138.7716,550.93665,1138.7603,550.92584,1138.7362,550.924L1138.7366,550.924C1138.7355,550.92395,1138.7368,550.9241,1138.7389,550.9241L1138.7389,550.9241C1138.741,550.9241,1138.7423,550.92395,1138.7412,550.924L1138.7416,550.924C1138.7169,550.9259,1138.706,550.9371,1138.7042,550.9612L1138.7043,550.96063C1138.704,550.96484,1138.7043,550.9608,1138.7043,550.9586 Z"/>
</g>
<g style="fill:rgb(101,214,250); fill-opacity:1.0; stroke-linejoin: miter">
<path d="M1126.8756,529.25806L1126.8756,529.25806C1126.8756,534.6221,1122.5276,538.97076,1117.163,538.97076L1117.163,538.97076C1111.7987,538.97076,1107.4503,534.62225,1107.4503,529.25806L1107.4503,529.25806C1107.4503,523.894,1111.7983,519.5453,1117.163,519.5453L1117.163,519.5453C1122.5272,519.5453,1126.8756,523.8938,1126.8756,529.25806L1126.8756,529.25806 M1117.1691,529.25806L1117.1691,529.25806C1117.1691,529.25446,1117.1663,529.25195,1117.163,529.25195L1117.163,529.25195C1117.1594,529.25195,1117.1569,529.25446,1117.1569,529.25806L1117.1569,529.25806C1117.1569,529.26154,1117.1597,529.2641,1117.163,529.2641L1117.163,529.2641C1117.1665,529.2641,1117.1691,529.26154,1117.1691,529.25806 Z"/>
</g>
<g style="fill:rgb(250,101,101); fill-opacity:1.0; stroke-linejoin: miter">
<path d="M1150.6938,531.4485L1150.6938,531.4485C1150.6938,539.11255,1144.4806,545.3253,1136.8169,545.3253L1136.8169,545.3253C1129.153,545.3253,1122.9401,539.11237,1122.9401,531.4485L1122.9401,531.4485C1122.9401,523.7845,1129.1527,517.5716,1136.8169,517.5716L1136.8169,517.5716C1144.4806,517.5716,1150.6938,523.7845,1150.6938,531.4485L1150.6938,531.4485 M1136.8157,531.4485L1136.8157,531.4485C1136.8157,531.4492,1136.8159,531.44965,1136.8169,531.44965L1136.8169,531.44965C1136.8174,531.44965,1136.8182,531.44904,1136.8182,531.4485L1136.8182,531.4485C1136.8182,531.4478,1136.8177,531.44727,1136.8169,531.44727L1136.8169,531.44727C1136.8163,531.44727,1136.8157,531.4475,1136.8157,531.4485 Z"/>
</g>
<g>
<g style="fill:rgb(0,0,0); fill-opacity:1.0; stroke-linejoin: miter">
<path d="M1120.2676,552.96155L1120.2676,552.96155L1120.2676,536.5744C1120.2676,534.90106,1121.624,533.54456,1123.2974,533.54456C1124.9707,533.54456,1126.3273,534.90106,1126.3273,536.5744L1126.3273,536.5744L1126.3273,552.96155C1126.3273,554.6349,1124.9707,555.9914,1123.2974,555.9914C1121.624,555.9914,1120.2676,554.6349,1120.2676,552.96155 Z"/>
</g>
<g style="fill:rgb(0,0,0); fill-opacity:1.0; stroke-linejoin: miter">
<path d="M1131.2604,548.1626L1131.2604,548.1626L1114.8733,548.16266C1113.1998,548.16266,1111.8433,546.8061,1111.8433,545.13275C1111.8433,543.4594,1113.1998,542.10284,1114.8733,542.10284L1114.8733,542.10284L1131.2604,542.1028C1132.9337,542.1029,1134.2902,543.4594,1134.2902,545.13275C1134.2902,546.8061,1132.9337,548.1627,1131.2604,548.1626 Z"/>
</g>
</g>
</g>
</svg>